<?xml version="1.0" encoding="utf-8"?>
<!-- Generator: Adobe Illustrator 21.1.0, SVG Export Plug-In . SVG Version: 6.00 Build 0)  -->
<svg version="1.1" id="Layer_1" xmlns="http://www.w3.org/2000/svg" xmlns:xlink="http://www.w3.org/1999/xlink" x="0px" y="0px"
	 width="68px" height="68px" viewBox="0 0 68 68" style="enable-background:new 0 0 68 68;" xml:space="preserve">
<style type="text/css">
	.st0{fill:none;stroke:#00DCF0;stroke-width:0.2835;stroke-linecap:round;stroke-linejoin:round;stroke-miterlimit:10;}
	.st1{fill:none;stroke:#000000;stroke-width:0.2835;stroke-linecap:round;stroke-linejoin:round;stroke-miterlimit:10;}
	.st2{fill:none;stroke:#F00000;stroke-width:0.2835;stroke-linecap:round;stroke-linejoin:round;stroke-miterlimit:10;}
</style>
<rect x="-8.5" y="-8.5" class="st0" width="85" height="85"/>
<circle class="st0" cx="34" cy="34" r="34"/>
<path id="scleraBack" class="st0" d="M34,13.1c-11.6,0-20.9,9.3-20.9,20.9S22.4,55,34,55s21-9.4,21-21S45.6,13.1,34,13.1"/>
<path id="scleraFront" class="st0" d="M34,19.8c7.8,0,14.2,6.4,14.2,14.2S41.8,48.2,34,48.2S19.8,41.8,19.8,34S26.2,19.8,34,19.8"/>
<path id="iris" class="st1" d="M34,17.368c9.18,0,16.632,7.452,16.632,16.632S43.18,50.632,34,50.632S17.368,43.18,17.368,34
	S24.82,17.368,34,17.368"/>
<path id="pupilMax" class="st1" d="M34,24.2c5.5,0,9.8,4.4,9.8,9.8s-4.3,9.9-9.8,9.9s-9.8-4.4-9.8-9.9S28.6,24.2,34,24.2"/>
<path id="pupilMin" class="st1" d="M34,31.6c1.4,0,2.4,1.1,2.4,2.4c0,1.4-1.1,2.4-2.4,2.4c-1.4,0-2.4-1.1-2.4-2.4S32.7,31.6,34,31.6
	"/>
<path id="lowerLidClosed" class="st2" d="M68.1,30.3c0.3,4.4-1.9,8.7-10.5,12.8c-6.9,3.3-14.6,5.1-23.5,5.1s-16.6-1.8-23.5-5.1
	C2.1,39-0.2,34.7,0.1,30.3"/>
<path id="lowerLidOpen" class="st2" d="M68.2,31.7c1,12.4-4.3,22.6-11.8,28.6C49,66.2,41,67.2,34.1,67.2s-15.1-1.1-22.5-7
	C4.1,54.2-1.2,44-0.2,31.6"/>
<path id="lowerLidEdge" class="st2" d="M72.7,31.6c0.1,0.8,0.1,1.6,0.1,2.4c0,21.4-17.3,38.6-38.7,38.7C12.7,72.6-4.6,55.4-4.6,34
	c0-0.8,0-1.6,0.1-2.4"/>
<path id="upperLidClosed" class="st2" d="M68.2,31.7c-0.2,5.5-7.8,11.1-13.3,13.9c-7.1,3.6-15.4,4.6-20.9,4.6h0.2
	c-5.5,0-13.8-1-20.9-4.6C7.8,42.8,0.2,37.2,0,31.7"/>
<path id="upperLidOpen" class="st2" d="M67.7,29.2C65.3,12.7,51.1,0,34,0S2.7,12.7,0.3,29.2"/>
<path id="upperLidEdge" class="st2" d="M-4.5,30.1C-2.6,10.5,13.9-4.7,34-4.7s36.6,15.2,38.5,34.8"/>
</svg>
