<?xml version="1.0" encoding="utf-8"?>
<!-- Generator: Adobe Illustrator 21.0.0, SVG Export Plug-In . SVG Version: 6.00 Build 0)  -->
<svg version="1.1" id="Layer_1" xmlns="http://www.w3.org/2000/svg" xmlns:xlink="http://www.w3.org/1999/xlink" x="0px" y="0px"
	 width="68px" height="68px" viewBox="0 0 68 68" style="enable-background:new 0 0 68 68;" xml:space="preserve">
<style type="text/css">
	.st0{fill:none;stroke:#00DCF0;stroke-width:0.2835;stroke-linecap:round;stroke-linejoin:round;stroke-miterlimit:10;}
	.st1{fill:none;stroke:#00DCF0;stroke-width:0.2835;stroke-miterlimit:10;}
	.st2{fill:none;stroke:#000000;stroke-width:0.2835;stroke-linecap:round;stroke-linejoin:round;stroke-miterlimit:10;}
	.st3{fill:none;stroke:#F00000;stroke-width:0.2835;stroke-linecap:round;stroke-linejoin:round;stroke-miterlimit:10;}
</style>
<rect x="-8.5" y="-8.5" class="st0" width="85" height="85"/>
<circle class="st0" cx="34" cy="34" r="34"/>
<path id="scleraBack" class="st0" d="M34,10c-13.3,0-24,10.7-24,24s10.7,24.1,24,24.1S58.1,47.3,58.1,34S47.3,10,34,10"/>
<path id="scleraFront" class="st1" d="M34,13.5c11.3,0,20.5,9.2,20.5,20.5S45.3,54.5,34,54.5S13.5,45.3,13.5,34S22.7,13.5,34,13.5"
	/>
<path id="iris" class="st2" d="M34,11.1c12.8,0,22.9,10.3,22.9,22.9S46.8,56.9,34,56.9S11.1,46.8,11.1,34S21.2,11.1,34,11.1"/>
<path id="pupilMax" class="st2" d="M34,14.4c6.8,3.9,11.3,11.2,11.3,19.6S40.8,49.7,34,53.6C27.2,49.7,22.7,42.4,22.7,34
	S27.2,18.3,34,14.4"/>
<path id="pupilMin" class="st2" d="M34,15.1c1.8,6,2.8,12.3,2.8,18.9s-1,12.9-2.8,18.9c-1.8-6-2.8-12.3-2.8-18.9S32.2,21.1,34,15.1"
	/>
<path id="lowerLidEdge" class="st3" d="M71.5,23.7c0.2,0.8,1,5.3,1.1,6.1C74.9,51,59.6,70.1,38.4,72.5C20.8,74.4,3.5,60.6-2.8,45"/>
<path id="lowerLidClosed" class="st3" d="M66.9,22.2c0.3,4.4-2.2,15.3-10.8,19.4c-10.4,5-20.9,2.5-33.2,1.9
	c-9.1-0.4-16.7-1.4-23,0.3c-2.3,0.6-1.9,0.9-2.1,1.5"/>
<path id="lowerLidOpen" class="st3" d="M67,23.6c1,12.4-1.9,23-9.1,30.5c-9.8,10.2-24.3,13.8-35.4,9.7C10.1,59.2,10,49.3,0.5,46
	c-1.9-0.7-2.4,0.3-2.5-0.6"/>
<path id="upperLidEdge" class="st3" d="M-2.9,44c-1-2.9-1.3-4.8-1.7-8C-6.9,14.8,8.5-2.1,29.7-4.5c20-2.2,37.3,7.4,41.4,26.6"/>
<path id="upperLidClosed" class="st3" d="M67,23.6c-0.2,5.5-1.7,12.3-7.8,16.8c-6.8,5-13.6,5.4-28.4,4.7C14,44.2,11.9,44.8,5.8,45.2
	c-4.4,0.3-7.7-1.1-7.9-2"/>
<path id="upperLidOpen" class="st3" d="M66.9,22.2c-4.4-9.4-9.2-12.9-15.1-16.2c-7-3.9-19-4.2-27.7,0.8c-13.9,8-8,16-22.4,29.3
	c-3.1,2.9-3.7,3.8-3.9,7.1"/>
</svg>
